<svg xmlns="http://www.w3.org/2000/svg" viewBox="0 0 47.03 64.88"><defs><style>.cls-1{fill:none;stroke:#000;stroke-linecap:round;stroke-linejoin:round;stroke-width:2px;}</style></defs><title>Asset 59</title><g id="Layer_2" data-name="Layer 2"><g id="Layer_2-2" data-name="Layer 2"><polyline class="cls-1" points="16.89 24.96 13.1 20.89 16.89 16.82"/><polyline class="cls-1" points="30.17 24.96 33.96 20.89 30.17 16.82"/><line class="cls-1" x1="24.69" y1="16.82" x2="22.38" y2="24.96"/><line class="cls-1" x1="10.96" y1="49.01" x2="10.96" y2="58.82"/><line class="cls-1" x1="15.87" y1="53.91" x2="6.06" y2="53.91"/><line class="cls-1" x1="36.04" y1="49.01" x2="36.04" y2="51.46"/><line class="cls-1" x1="36.04" y1="56.36" x2="36.04" y2="58.82"/><line class="cls-1" x1="40.94" y1="53.91" x2="38.49" y2="53.91"/><line class="cls-1" x1="33.58" y1="53.91" x2="31.13" y2="53.91"/><path class="cls-1" d="M36,44H11a10,10,0,1,0,9.91,11h5.26A10,10,0,1,0,36,44Z"/><line class="cls-1" x1="19.55" y1="49.01" x2="21.5" y2="49.01"/><line class="cls-1" x1="25.55" y1="49.01" x2="27.5" y2="49.01"/><rect class="cls-1" x="1.03" y="1" width="45" height="34.07" rx="3.77"/><line class="cls-1" x1="1.03" y1="8.41" x2="46" y2="8.41"/><line class="cls-1" x1="23.5" y1="43.95" x2="23.5" y2="35.07"/></g></g></svg>