<svg xmlns="http://www.w3.org/2000/svg" viewBox="0 0 54.19 64.88"><defs><style>.cls-1,.cls-2{fill:none;stroke:#000;stroke-linejoin:round;stroke-width:2px;}.cls-1{stroke-linecap:round;}</style></defs><title>Asset 17</title><g id="Layer_2" data-name="Layer 2"><g id="Layer_2-2" data-name="Layer 2"><polyline class="cls-1" points="20.14 42.8 15.47 37.79 20.14 32.77"/><polyline class="cls-1" points="34.04 42.8 38.7 37.79 34.04 32.77"/><line class="cls-1" x1="28.52" y1="32.77" x2="25.67" y2="42.79"/><circle class="cls-2" cx="27.1" cy="37.78" r="20.61"/><line class="cls-1" x1="45.55" y1="19.33" x2="49.86" y2="15.02"/><line class="cls-1" x1="46.53" y1="11.68" x2="53.19" y2="18.35"/><line class="cls-1" x1="8.64" y1="19.33" x2="4.33" y2="15.02"/><line class="cls-1" x1="1" y1="18.35" x2="7.67" y2="11.69"/><path class="cls-2" d="M30.73,11.94V7.22h2.09a3.11,3.11,0,0,0,0-6.22H21.37a3.11,3.11,0,1,0,0,6.22h2.1v4.72a26.09,26.09,0,1,0,7.26,0Z"/></g></g></svg>