<svg xmlns="http://www.w3.org/2000/svg" viewBox="0 0 64.88 64.88"><defs><style>.cls-1{fill:none;stroke:#000;stroke-linecap:round;stroke-linejoin:round;stroke-width:2px;}</style></defs><title>Asset 14</title><g id="Layer_2" data-name="Layer 2"><g id="Layer_2-2" data-name="Layer 2"><path class="cls-1" d="M63.88,35.65V29.23a2.05,2.05,0,0,0-2.05-2.05H58.35a2.07,2.07,0,0,1-2-1.54,24.67,24.67,0,0,0-2.21-5.32,2.07,2.07,0,0,1,.3-2.49l2.47-2.47a2,2,0,0,0,0-2.89L52.4,7.93a2,2,0,0,0-2.89,0L47,10.39a2.05,2.05,0,0,1-2.49.31,24.59,24.59,0,0,0-5.31-2.21,2.08,2.08,0,0,1-1.55-2V3a2,2,0,0,0-2-2H29.23a2,2,0,0,0-2,2V6.52a2.08,2.08,0,0,1-1.55,2,24.59,24.59,0,0,0-5.31,2.21,2.05,2.05,0,0,1-2.49-.31L15.37,7.93a2,2,0,0,0-2.89,0L7.94,12.47a2,2,0,0,0,0,2.89l2.47,2.47a2.07,2.07,0,0,1,.3,2.49A24.67,24.67,0,0,0,8.5,25.64a2.07,2.07,0,0,1-2,1.54H3a2,2,0,0,0-2,2.05v6.42a2,2,0,0,0,2,2H6.53a2.07,2.07,0,0,1,2,1.55,25.24,25.24,0,0,0,2.21,5.3,2.07,2.07,0,0,1-.3,2.49L7.94,49.5a2,2,0,0,0,0,2.89l4.54,4.54a2,2,0,0,0,2.89,0l2.47-2.47a2.07,2.07,0,0,1,2.49-.3,25.1,25.1,0,0,0,5.31,2.21,2.06,2.06,0,0,1,1.55,2v3.49a2,2,0,0,0,2,2.05h6.42a2,2,0,0,0,2-2.05V58.34a2.06,2.06,0,0,1,1.55-2,25.1,25.1,0,0,0,5.31-2.21,2.07,2.07,0,0,1,2.49.3l2.47,2.47a2,2,0,0,0,2.89,0l4.54-4.54a2,2,0,0,0,0-2.89L54.47,47a2.07,2.07,0,0,1-.3-2.49,24.69,24.69,0,0,0,2.2-5.3,2.08,2.08,0,0,1,2-1.55h3.48A2,2,0,0,0,63.88,35.65Z"/><path class="cls-1" d="M18.25,36a3.56,3.56,0,1,0,3.56-3.56,3.56,3.56,0,1,1,3.55-3.56"/><path class="cls-1" d="M35.92,25.32H31.81a1.61,1.61,0,0,0-1.6,1.61V38a1.6,1.6,0,0,0,1.6,1.6h4.11"/><rect class="cls-1" x="40.76" y="25.32" width="5.72" height="14.23" rx="1.61"/><line class="cls-1" x1="30.21" y1="32.44" x2="35.92" y2="32.44"/></g></g></svg>