<svg xmlns="http://www.w3.org/2000/svg" viewBox="0 0 54.61 64.88"><defs><style>.cls-1{fill:none;stroke:#000;stroke-linecap:round;stroke-linejoin:round;stroke-width:2px;}</style></defs><title>Asset 1</title><g id="Layer_2" data-name="Layer 2"><g id="Layer_2-2" data-name="Layer 2"><path class="cls-1" d="M53.61,7a6,6,0,0,0-12,0v4.33h12Z"/><path class="cls-1" d="M47.58,1H7A6,6,0,0,0,1,7V57.85a6,6,0,0,0,6,6H47.58"/><path class="cls-1" d="M53.61,57.85a6,6,0,1,1-12,0V53.52h12Z"/><line class="cls-1" x1="41.56" y1="11.35" x2="41.56" y2="53.52"/><rect class="cls-1" x="10.36" y="10.41" width="6.78" height="6.78" rx="1.25"/><rect class="cls-1" x="25.42" y="10.41" width="6.78" height="6.78" rx="1.25"/><rect class="cls-1" x="10.36" y="27.81" width="6.78" height="6.78" rx="1.25"/><rect class="cls-1" x="25.42" y="27.81" width="6.78" height="6.78" rx="1.25"/><rect class="cls-1" x="10.36" y="45.21" width="6.78" height="6.78" rx="1.25"/><rect class="cls-1" x="25.42" y="45.21" width="6.78" height="6.78" rx="1.25"/><line class="cls-1" x1="25.42" y1="13.8" x2="17.14" y2="13.8"/><line class="cls-1" x1="13.75" y1="17.19" x2="13.75" y2="27.81"/><line class="cls-1" x1="17.14" y1="31.2" x2="25.42" y2="31.2"/><line class="cls-1" x1="28.81" y1="34.59" x2="28.81" y2="45.21"/><line class="cls-1" x1="25.42" y1="48.6" x2="17.14" y2="48.6"/></g></g></svg>